<svg xmlns="http://www.w3.org/2000/svg" width="1066.667" height="1066.667" version="1.0" viewBox="0 0 800 800"><path d="M2010 5748 c-80 -41 -161 -84 -180 -95 -111 -64 -153 -90 -230 -141 -396 -260 -763 -591 -1035 -932 -92 -115 -110 -139 -164 -215 -28 -38 -55 -75 -61 -82 -5 -7 -10 -17 -10 -23 0 -5 -4 -10 -8 -10 -5 0 -14 -10 -21 -22 -6 -13 -19 -35 -29 -50 -17 -26 -120 -198 -163 -273 -18 -31 -77 -146 -107 -207 -2 -4 403 -8 900 -8 497 0 926 -2 953 -5 451 -43 849 -178 1205 -409 78 -50 210 -149 270 -201 50 -42 248 -242 289 -290 119 -141 270 -372 342 -522 19 -40 37 -73 40 -73 3 0 13 19 24 43 83 191 280 477 454 660 97 102 228 216 346 303 311 229 711 398 1085 459 19 3 46 7 60 10 30 5 122 16 188 21 26 2 451 4 944 4 l897 0 -15 37 c-9 20 -21 46 -28 57 -8 12 -33 57 -56 101 -64 120 -86 158 -178 300 -73 112 -243 350 -261 365 -4 3 -26 30 -51 60 -133 163 -285 322 -450 471 -104 93 -300 253 -382 311 -73 51 -292 194 -308 201 -8 4 -28 16 -45 27 -48 30 -71 43 -230 125 l-150 77 -6 -44 c-4 -23 -9 -63 -12 -88 -13 -97 -56 -267 -93 -372 -53 -147 -184 -387 -260 -475 -10 -12 -30 -36 -44 -54 -49 -64 -187 -193 -279 -262 -75 -56 -271 -177 -286 -177 -2 0 -32 -13 -67 -29 -35 -16 -96 -40 -136 -54 -63 -22 -72 -23 -68 -9 3 10 82 285 176 612 94 327 175 608 180 624 l10 28 -28 -18 c-15 -10 -32 -22 -39 -28 -53 -46 -884 -666 -893 -666 -9 0 -117 76 -180 127 -8 7 -76 58 -150 113 -74 56 -142 106 -150 113 -8 7 -60 46 -115 88 -55 41 -158 119 -229 172 -70 53 -130 97 -131 97 -2 0 1 -15 6 -32 6 -18 23 -78 39 -133 15 -55 53 -185 83 -290 31 -104 94 -324 141 -489 48 -164 89 -302 92 -307 16 -27 -17 -23 -107 12 -94 36 -297 135 -309 149 -3 3 -23 17 -45 30 -167 99 -351 280 -479 470 -164 243 -260 506 -304 838 l-7 53 -145 -73z" transform="translate(0.000000,800.000000) scale(0.100000,-0.100000)"/></svg>